<svg fill="none" height="29" viewBox="0 0 103 29" width="103" xmlns="http://www.w3.org/2000/svg"><path clip-rule="evenodd" d="m16.1842 10.0188 3.2998-3.9043h-14.3981l-4.824181 5.7076v16.9766l3.926221-4.6329v-6.3529h5.38633l3.28083-3.8679h6.5778l-12.55691 14.8537h4.91911l15.8115-18.7799zm-.0278.0219h-8.68614l-3.26334 3.8459h8.68758z" fill="#e8ff01" fill-rule="evenodd"/><path d="m33.4561 25.8624c3.1203 0 5.2666-1.9507 5.4608-4.4869v-.1942h-2.7304c-.1956 1.5594-1.1695 2.3405-2.7304 2.3405-1.5608 0-3.1202-.9753-3.1202-3.3159v-2.7304c0-2.3405 1.5594-3.3159 3.1202-3.3159 1.5609 0 2.5348.7797 2.7304 2.3406h2.7304v-.1957c-.1942-2.5347-2.3405-4.4854-5.4608-4.4854-3.3159 0-5.8506 2.1449-5.8506 5.8506v2.3406c0 3.7057 2.5347 5.8521 5.8506 5.8521zm8.3869-.1957.9753-2.7304h6.0463l.9753 2.7304h2.7304v-.1956l-5.0709-13.4564h-3.3159l-5.0709 13.4564v.1956zm1.9507-5.2651 1.9492-5.6565h.1956l1.9507 5.6565v.1942h-4.0955zm14.8215 5.4608c3.3159 0 5.6564-1.7565 5.6564-4.2913 0-2.926-2.3405-3.5101-4.2898-3.9014l-1.9507-.3898c-.9753-.1942-1.9507-.3899-1.9507-1.5594 0-.9754.9754-1.5609 2.3406-1.5609 1.755 0 2.7304.7797 2.7304 2.3406h2.7304v-.1957c0-2.5347-2.1449-4.4854-5.2666-4.4854-3.1203 0-5.2652 1.755-5.2652 4.0956 0 2.7304 2.3406 3.5115 4.2898 3.9014l1.9507.3898c.9754.1957 1.9507.3899 1.9507 1.3652 0 1.3652-1.1695 1.9507-2.7304 1.9507-1.9507 0-3.1202-.7811-3.1202-2.3405h-2.7304v.1942c0 2.5362 2.3405 4.4869 5.655 4.4869zm10.1419-.1957v-13.652h-2.7304v13.652zm5.0709 0v-9.1665h.1957l5.4608 9.1665h3.3159v-13.652h-2.7304v9.1666h-.1957l-5.4608-9.1666h-3.3159v13.652zm16.5795.1957c3.3144 0 5.8506-2.1464 5.8506-5.8521v-2.3406c0-3.7057-2.5362-5.8506-5.8506-5.8506-3.3159 0-5.8521 2.1449-5.8521 5.8506v2.3406c0 3.7057 2.5362 5.8521 5.8521 5.8521zm0-2.3406c-1.5608 0-3.1217-.9753-3.1217-3.3159v-2.7304c0-2.3405 1.5609-3.3159 3.1217-3.3159 1.5594 0 3.1202.9754 3.1202 3.3159v2.7304c0 2.3406-1.5608 3.3159-3.1202 3.3159z" fill="#fefefe"/><path d="m96.32 11.5167c-.8425.1475-1.7054.035-2.5464-.0613-.0395.1285-.076.327-.1942.4088-.0643.0453-.1942.0131-.2672-.0044-.4614-.108-1.9434-.476-2.1741-.8454-.0263-.1489.0233-.2818.0628-.4249-.7418-.3241-1.3667-.70666-1.8996-1.32575.1124-.37524.2131-.75779.3606-1.12282.5709.549 1.2542 1.00309 2.0179 1.22795.1036-.08323.2088-.17083.3227-.24092.1138-.07008.2087-.09198.3387-.05694.2526.06862 1.8061.49936 1.8602.6147.0686.14747-.0292.33148-.0818.47308.987.1738 1.5492.1168 2.5143.1066-.0453.3636-.1139.7622-.2132 1.114-.0248.0877-.0233.095-.1007.1373zm3.906 5.2505c-.102-.2759-.5273-1.0629-.3857-1.3403.0409-.0774.1168-.1154.1987-.1315.701-.1372 1.679.514 2.224.8746-.12-.3095-.316-.6001-.503-.8716-1.193-1.7244-3.1535-2.9246-5.0268-3.789.1095-.4059.3621-1.1155.1504-1.5068-.054-.09932-.1402-.16357-.2526-.18255-.0716-.01168-.1416.01022-.2103.03213-.0642-.13579-.0277-.39715-.0204-.54754.0394-.79576.0044-1.60904-.4848-2.27777.2161-.44241.4278-.89358.2614-1.39148-.0847-.25698-.384-.63076-.3037-.89066.2993-.24092.8191.0438 1.2776-.47161.5548-.62347.2365-1.71563 1.2206-1.98137l.0847.02336c.0394.07301.0409.12265.0467.20442.003.04818.0073.09783.0132.14747.0058.04818.0131.09783.0219.14601.0073.04964.0175.09783.0277.14601s.0234.09637.0351.14309c.0131.04818.0277.09491.0438.14309.0146.04672.0306.09345.0482.13871.0189.04672.0365.09199.0569.13725s.0409.09053.0628.13433c.0219.04526.0452.08761.0701.13141.0233.04234.0482.08469.0744.12703.0263.04234.0541.08323.0833.12411.0277.03942.0569.0803.0876.11973.0292.03796.0613.07738.0934.11388.0321.03797.0643.07447.0993.11097.0336.03505.0686.07009.1037.10513.0365.03358.073.06717.1095.09929.3519.30224.7203.45409 1.1623.57674-.558-.53294-1.2499-1.41338-1.2675-2.22374-.0116-.59134.2935-1.21335-.1927-1.7127-.2511-.258442-.6497-.411753-.9987-.478918-.2818-.024822-.5344-.026282-.8045.070085-.4468.159152-.8089.506653-1.2309.719833-.7943.40153-1.6207.47015-2.3274 1.06588-.311.26281-1.7025 1.70686-1.9025 2.01786-.0745.11535-.111.25114-.1227.38547-.0189.18835.0117.39277.0424.5782-.749.54608-1.1053 1.0615-1.3433 1.958l-.0394.01898c-.0876.03796-.1606.07009-.2555.07885-.2512.01898-.6615.17813-.8265.37232-.2263.26866-.3095.73152-.4059 1.06734-2.4719.01168-4.9176.06424-7.2436.99726.5797.0599 2.1041.2 2.4778.6235.0555.0642.0672.1138.0716.1971-.1168.3986-.8892.7884-1.2104 1.0615.5548-.0701 1.8601-.276 2.3055.0774.1124.089.1693.2219.1795.3635.0366.4921-.638 1.6791-.8585 2.2077.6673-.4103 1.9157-1.0995 2.7231-.9199.1504.0336.2818.111.365.2439.2643.419-.0876 1.4528-.1664 1.9361.5256-.3461 1.8164-1.247 2.4208-1.1433.1709.0292.2979.1314.387.276.2847.4584.4847 1.7185.6001 2.285.3971-.3957 1.428-1.6499 1.9551-1.6484.1649.0014.3182.0759.4321.1942.0993.1036.1665.2263.2337.3518.2555.5739.4803 1.2134.6161 1.8281.2015-.4906.7242-1.6981 1.2017-1.8865.1548-.0613.3241-.054.476.0176.6526.3051 1.2761 1.5944 1.5608 2.231.0935-.5651.2015-2.0164.6629-2.323.1563-.1037.3431-.1139.5198-.0701.6395.1577 1.3254.9023 1.6894 1.4236-.06-.2132-.117-.4307-.194-.6381z" fill="#ff5c00"/></svg>