<svg version="1.1" xmlns="http://www.w3.org/2000/svg"
    xmlns:xlink="http://www.w3.org/1999/xlink" width="100%"
    viewBox="68.72242117924878 193.96586360843673 99.29007107202264 82.06827278312653">
    <g
        data-paper-data="{&quot;isIcon&quot;:&quot;true&quot;,&quot;iconType&quot;:&quot;icon&quot;,&quot;rawIconId&quot;:&quot;1689661&quot;,&quot;source&quot;:&quot;noun&quot;,&quot;selectedEffects&quot;:{&quot;container&quot;:&quot;&quot;,&quot;transformation&quot;:&quot;&quot;,&quot;pattern&quot;:&quot;&quot;},&quot;isDetailed&quot;:false,&quot;iconStyle&quot;:&quot;standalone&quot;,&quot;bounds&quot;:{&quot;x&quot;:68.72242117924878,&quot;y&quot;:193.96586360843673,&quot;width&quot;:99.29007107202264,&quot;height&quot;:82.06827278312653},&quot;fillRule&quot;:&quot;evenodd&quot;,&quot;suitableAsStandaloneIcon&quot;:true}"
        fill-rule="evenodd">
        <path
            d="M149.5392,226.66544c0,0.55146 0.39305,1.22798 0.86828,1.50192l16.73911,9.66304c0.47762,0.27513 0.8659,0.95046 0.8659,1.50073v23.33042c0,0.54908 -0.38948,1.2256 -0.8659,1.49954l-20.2039,11.66759c-0.47642,0.27394 -1.25657,0.27394 -1.7318,0l-16.73911,-9.66543c-0.47642,-0.27275 -1.25657,-0.27275 -1.7318,0l-16.74149,9.66543c-0.47404,0.27394 -1.25418,0.27394 -1.73061,0l-20.20509,-11.66759c-0.47762,-0.27394 -0.8659,-0.95046 -0.8659,-1.49954v-19.32728c0,-0.54908 -0.39067,-1.2256 -0.86709,-1.49954l-16.74149,-9.66424c-0.47523,-0.27394 -0.8659,-0.95046 -0.8659,-1.50073v-23.3328c0,-0.54908 0.39186,-1.22441 0.8659,-1.49835l20.20628,-11.6664c0.47642,-0.27394 1.25776,-0.27394 1.73061,0l16.74149,9.66424c0.47642,0.27394 1.25657,0.27394 1.73061,0l16.73911,-9.66424c0.47762,-0.27513 1.25657,-0.27513 1.7318,0l20.20628,11.6664c0.47642,0.27394 0.86471,0.94927 0.86471,1.49835zM76.52503,214.84777c-0.47762,-0.27513 -0.86828,-0.05002 -0.86828,0.50024v11.31861c0,0.55146 0.39186,1.22679 0.86828,1.50073l13.27075,7.66207c0.47642,0.27513 1.25776,0.27513 1.73061,0l35.21836,-20.33491c0.47523,-0.27394 1.25418,-0.27394 1.7318,0.00119l13.26718,7.66326c0.47523,0.27632 0.86471,0.05002 0.86471,-0.49905v-11.31861c0,-0.55146 -0.39186,-1.22679 -0.86471,-1.49954l-13.27433,-7.66326c-0.47523,-0.27394 -1.25418,-0.27394 -1.7318,0l-35.21479,20.33372c-0.47523,0.27394 -1.25537,0.27394 -1.7318,-0.00119zM91.52639,202.1785c-0.47285,-0.27394 -1.25418,-0.27394 -1.73061,0l-9.80478,5.66228c-0.47523,0.27513 -0.47523,0.72535 0,1.00049l9.8024,5.66109c0.47523,0.27513 1.25537,0.27513 1.73061,0l9.80955,-5.66228c0.47404,-0.27513 0.47404,-0.72655 0,-1.00168zM126.73999,235.82943c0.47523,0.27513 1.25537,0.27513 1.7318,0l9.80478,-5.66228c0.47523,-0.27513 0.47523,-0.72535 0,-1.00049l-9.80001,-5.66348c-0.47762,-0.27394 -1.25776,-0.27394 -1.7318,0l-9.80955,5.66586c-0.47404,0.27394 -0.47404,0.72535 0,0.99929zM94.13123,258.65841c0,0.55265 0.38948,1.22798 0.8659,1.50192l13.27075,7.66207c0.47642,0.27513 1.25657,0.27513 1.73061,0l35.21836,-20.33372c0.47523,-0.27394 1.25418,-0.27394 1.73061,0.00119l13.26718,7.66326c0.47762,0.27513 0.8659,0.05002 0.8659,-0.49905v-11.32099c0,-0.55027 -0.38948,-1.22679 -0.8659,-1.50073l-13.27194,-7.66207c-0.47642,-0.27394 -1.25657,-0.27394 -1.7318,0l-35.21598,20.33372c-0.47404,0.27632 -1.25537,0.27632 -1.73299,0l-13.2648,-7.66207c-0.47762,-0.27632 -0.8659,-0.05241 -0.8659,0.49786zM109.99849,234.17266c-0.47404,-0.27632 -1.25418,-0.27632 -1.73061,-0.00238l-9.80597,5.66228c-0.47642,0.27632 -0.47642,0.72655 0,1.00168l9.79882,5.66228c0.47762,0.27394 1.25895,0.27394 1.73299,0l9.81073,-5.66467c0.47523,-0.27394 0.47523,-0.72416 0,-1.00049zM135.40254,261.1632c-0.47762,0.27394 -0.47762,0.72416 0,0.9981l9.80716,5.66109c0.47523,0.27513 1.25537,0.27513 1.7318,0l9.80597,-5.66228c0.47762,-0.27513 0.47762,-0.72655 0,-1.00049l-9.80121,-5.66228c-0.47642,-0.27513 -1.25537,-0.27513 -1.73299,-0.00119z"
            data-paper-data="{&quot;isPathIcon&quot;:true}" style="fill: rgb(64, 211, 183)"></path>
    </g>
</svg>