<svg width="62" height="56" viewBox="0 0 62 56" fill="none" xmlns="http://www.w3.org/2000/svg">
    <g clip-path="url(#clip0_20_35627)">
        <path fill-rule="evenodd" clip-rule="evenodd"
            d="M21.6457 7.90144L17.8807 3.04053V13.3516H30.5626V3.04053L27.0619 7.90144L24.2217 3.04053L21.6457 7.90144ZM0.134949 15.4124H4.69686V32.6336H9.59465C10.4017 34.375 11.3639 35.6471 12.2475 36.5218V36.6518H0.134949V15.4124ZM37.9253 31.2041V36.6518H42.4872V28.0732L48.7794 36.6518H54.3165L46.1366 25.4904L54.7566 15.4124H49.314L42.487 23.6402L42.4872 15.4124H37.9253V21.3999C38.6717 23.8057 39.1112 27.3808 37.9253 31.2041ZM57.5328 15.4124H62.0946V36.6518H57.5328V15.4124Z"
            fill="white" />
        <path fill-rule="evenodd" clip-rule="evenodd"
            d="M0.178589 39.8657H62.1349V53.2567H0.178589V39.8657ZM4.04375 50.5859C4.90647 51.4214 6.1046 51.8392 7.63814 51.8392C8.45193 51.8533 9.26131 51.7152 10.0258 51.432L9.70872 49.6394C9.12595 49.8431 8.51365 49.9466 7.89719 49.9455C6.9486 49.945 6.2057 49.6727 5.66848 49.1286C5.13126 48.5846 4.86265 47.8219 4.86265 46.8404C4.86265 45.8782 5.11669 45.1105 5.62475 44.5372C6.13317 43.9541 6.82332 43.6626 7.69521 43.6626C8.35257 43.6728 8.99999 43.827 9.59313 44.1144L9.98125 42.2343C9.24822 41.9438 8.46787 41.7955 7.6808 41.7971C6.77589 41.7784 5.88246 42.0049 5.09277 42.4533C4.3472 42.8785 3.74199 43.5172 3.35298 44.2896C2.93711 45.1456 2.73002 46.0902 2.74913 47.0442C2.74949 48.5697 3.18103 49.7503 4.04375 50.5859ZM18.1018 41.9433H15.6L12.0917 51.65H14.2198L14.9529 49.4346H18.72L19.4965 51.65H21.6531L18.1018 41.9433ZM16.8071 43.9109L18.1018 47.6274H15.5563L16.8071 43.9109ZM24.9847 51.65C25.5072 51.7781 26.0431 51.8417 26.5807 51.8395V51.8392C27.7117 51.8392 28.5936 51.5767 29.2263 51.052C29.859 50.5272 30.1753 49.7936 30.1753 48.8512C30.1752 48.2392 30.0458 47.7438 29.7871 47.3648C29.5502 46.9969 29.2297 46.692 28.8524 46.4758C28.4073 46.2346 27.9461 46.0252 27.4722 45.8491L26.8826 45.6159C26.585 45.4998 26.3044 45.343 26.0488 45.1497C25.9623 45.0746 25.8939 44.9803 25.849 44.8742C25.8042 44.7681 25.784 44.6529 25.79 44.5376C25.7866 44.396 25.8192 44.2559 25.8846 44.1308C25.9501 44.0057 26.0462 43.8998 26.1637 43.8233C26.4129 43.6388 26.7628 43.5465 27.2134 43.5465C27.603 43.5503 27.9901 43.6091 28.3636 43.7214C28.765 43.8334 29.1513 43.9949 29.5139 44.2023L29.8301 42.2785C29.0076 41.9405 28.1296 41.7625 27.2421 41.7537C26.1301 41.7537 25.2627 42.0209 24.6397 42.5553C24.0167 43.0897 23.7052 43.8233 23.7052 44.7561C23.7053 45.3294 23.8203 45.7958 24.0502 46.1553C24.2702 46.4953 24.5595 46.7835 24.8986 47.0006C25.3152 47.2393 25.7475 47.4487 26.1925 47.6273C26.2611 47.6529 26.3283 47.6821 26.3939 47.7147C26.4515 47.7342 26.5044 47.7537 26.5524 47.7731L26.8964 47.9189C27.2163 48.0356 27.5206 48.1922 27.8022 48.3853C27.8964 48.4518 27.9722 48.5416 28.0226 48.6462C28.0729 48.7508 28.096 48.8666 28.0898 48.9828C28.0909 49.1386 28.0516 49.2919 27.9759 49.4275C27.9002 49.563 27.7908 49.6761 27.6585 49.7553C27.3215 49.9632 26.931 50.0647 26.5369 50.0469C26.0879 50.0394 25.6423 49.9657 25.2142 49.8282C24.7398 49.6705 24.286 49.4552 23.8626 49.1869L23.6901 51.14C24.0961 51.3703 24.5318 51.542 24.9847 51.65ZM35.3227 41.9436H33.2379V51.6498H35.3227V41.9436ZM41.1853 41.9436H38.7414V51.6498H40.6537V44.8003L44.6505 51.6498H47.0659V41.9431H45.1537V48.75L41.1853 41.9436ZM52.21 51.2128C52.9698 51.6412 53.8282 51.8574 54.6975 51.8395V51.8392C55.5667 51.8572 56.425 51.6411 57.1848 51.2128C57.8964 50.7931 58.475 50.1762 58.8526 49.4346C59.2582 48.6119 59.4605 47.7017 59.4421 46.7822C59.4607 45.8811 59.2582 44.9895 58.8526 44.1875C58.4761 43.4565 57.8962 42.8535 57.1848 42.4533C56.425 42.0249 55.5667 41.8087 54.6975 41.8266C53.8235 41.8074 52.9602 42.0237 52.1957 42.4533C51.4828 42.8647 50.9033 43.4774 50.5278 44.2167C50.1398 45.0328 49.9383 45.927 49.9383 46.8328C49.9383 47.7387 50.1398 48.6329 50.5278 49.449C50.9115 50.1872 51.495 50.7991 52.21 51.2128ZM55.7386 49.7824C55.4119 49.9315 55.0555 50.0021 54.6975 49.9885V49.9882C54.2138 49.9981 53.7383 49.8613 53.3319 49.5952C52.9288 49.3207 52.6099 48.9369 52.4117 48.4875C51.9899 47.431 51.9899 46.2498 52.4117 45.1933C52.6016 44.7405 52.9208 44.3557 53.3282 44.0882C53.7356 43.8207 54.2126 43.6828 54.6979 43.6922C55.177 43.6837 55.6477 43.8208 56.0493 44.0858C56.4615 44.3497 56.783 44.7366 56.9695 45.1933C57.1984 45.7108 57.3112 46.2734 57.2998 46.8404C57.2998 47.7926 57.0601 48.5553 56.5809 49.1286C56.3536 49.4095 56.0653 49.6332 55.7386 49.7824Z"
            fill="white" />
        <path
            d="M23.5 37.5471C27.4924 37.5471 30.7288 32.4305 30.7288 26.1188C30.7288 19.8071 27.4924 14.6904 23.5 14.6904C19.5076 14.6904 16.2712 19.8071 16.2712 26.1188C16.2712 32.4305 19.5076 37.5471 23.5 37.5471Z"
            fill="#FF7E07" />
        <path
            d="M28.9202 14.6904C27.8841 14.6904 26.8911 14.9326 25.9713 15.3763C28.7468 16.9723 30.7288 21.1796 30.7288 26.1188C30.7288 31.0579 28.7468 35.2652 25.9713 36.8612C26.8916 37.3044 27.8846 37.5471 28.9202 37.5471C33.6845 37.5471 37.5469 32.4307 37.5469 26.1188C37.5469 19.8069 33.6845 14.6904 28.9202 14.6904Z"
            fill="#FF6107" />
        <path
            d="M18.0798 14.6904C19.1159 14.6904 20.1089 14.9326 21.0287 15.3763C18.2533 16.9723 16.2712 21.1796 16.2712 26.1188C16.2712 31.0579 18.2533 35.2652 21.0287 36.8612C20.1084 37.3044 19.1154 37.5471 18.0798 37.5471C13.3155 37.5471 9.45312 32.4307 9.45312 26.1188C9.45312 19.8069 13.3155 14.6904 18.0798 14.6904Z"
            fill="#FF6107" />
        <path
            d="M16.2712 26.1188C16.2712 21.1791 18.2532 16.9723 21.0287 15.3763C20.1084 14.9331 19.1154 14.6904 18.0798 14.6904C17.7456 14.6904 17.4167 14.718 17.0922 14.767L17.113 14.7699C17.9282 14.89 18.2678 15.8859 17.687 16.47C15.671 18.4976 14.3337 22.0612 14.3337 26.1183C14.3337 30.1754 15.6628 33.7172 17.6686 35.7481C18.2455 36.3328 17.9253 37.3461 17.113 37.4672C17.1062 37.4682 17.099 37.4691 17.0922 37.4701C17.4162 37.519 17.7456 37.5466 18.0798 37.5466C19.1159 37.5466 20.1089 37.3044 21.0287 36.8608C18.2532 35.2647 16.2712 31.0579 16.2712 26.1188Z"
            fill="#E94F1F" />
        <path
            d="M30.7288 26.1188C30.7288 21.1791 28.7468 16.9723 25.9713 15.3763C26.8916 14.9331 27.8846 14.6904 28.9202 14.6904C29.2544 14.6904 29.5833 14.718 29.9078 14.767L29.887 14.7699C29.0718 14.89 28.7323 15.8859 29.313 16.47C31.329 18.4976 32.6663 22.0612 32.6663 26.1183C32.6663 30.1754 31.3372 33.7172 29.3314 35.7481C28.7545 36.3328 29.0747 37.3461 29.887 37.4672C29.8938 37.4682 29.901 37.4691 29.9078 37.4701C29.5838 37.519 29.2544 37.5466 28.9202 37.5466C27.8841 37.5466 26.8911 37.3044 25.9713 36.8608C28.7468 35.2647 30.7288 31.0579 30.7288 26.1188Z"
            fill="#E94F1F" />
        <path
            d="M23.5 33.6025L27.2645 32.1925L30.5452 34.3794L34.0841 25.4829L27.4375 29.0271L25.7683 26.8116L23.5 27.79L21.2316 26.8116L19.5625 29.0271L12.9159 25.4829L16.4547 34.3794L19.7354 32.1925L23.5 33.6025Z"
            fill="#213043" />
        <path
            d="M27.2645 30.7393L23.5 32.1494L19.7354 30.7393C18.0459 31.8655 15.7485 31.1496 14.9977 29.263L13.6497 25.8743L12.9159 25.4829L16.4552 34.3789L19.7354 32.192L23.5 33.602L27.2645 32.192L30.5447 34.3789L34.0841 25.4829L33.3502 25.8743L32.0022 29.263C31.2514 31.1496 28.954 31.8655 27.2645 30.7393Z"
            fill="#FFC907" />
        <path
            d="M26.5341 21.8455C27.4321 20.7353 29.0964 19.1117 31.1589 19.0928C31.1589 19.0928 32.5113 20.8767 31.5905 23.1213C30.9526 24.6766 28.4222 23.952 26.9279 23.3606C26.3161 23.1184 26.1204 22.357 26.5341 21.8455Z"
            fill="#213043" />
        <path
            d="M20.4659 21.8455C19.5678 20.7353 17.9035 19.1117 15.841 19.0928C15.841 19.0928 14.4887 20.8767 15.4095 23.1213C16.0474 24.6766 18.5778 23.952 20.0721 23.3606C20.6838 23.1184 20.8795 22.357 20.4659 21.8455Z"
            fill="#213043" />
        <path
            d="M15.1247 21.97C15.2864 20.6907 16.7061 19.9995 17.8551 20.5856C18.9803 21.1601 19.8841 22.0949 20.4659 22.8142C20.4998 22.8564 20.5235 22.9019 20.5492 22.9469C20.7424 22.6142 20.7347 22.1782 20.4659 21.8455C19.5678 20.7353 17.9035 19.1117 15.841 19.0928C15.841 19.0928 14.9198 20.3139 15.1203 22.0048C15.1217 21.9932 15.1232 21.9816 15.1247 21.97Z"
            fill="#FFC807" />
        <path
            d="M31.8753 21.97C31.7135 20.6907 30.2938 19.9995 29.1449 20.5856C28.0197 21.1601 27.1158 22.0949 26.5341 22.8142C26.5002 22.8564 26.4764 22.9019 26.4508 22.9469C26.2575 22.6142 26.2652 22.1782 26.5341 21.8455C27.4321 20.7353 29.0964 19.1117 31.1589 19.0928C31.1589 19.0928 32.0802 20.3139 31.8796 22.0048C31.8782 21.9932 31.8767 21.9816 31.8753 21.97Z"
            fill="#FFC807" />
    </g>
    <defs>
        <clipPath id="clip0_20_35627">
            <rect width="62" height="56" fill="white" />
        </clipPath>
    </defs>
</svg>